<svg xmlns="http://www.w3.org/2000/svg" xmlns:xlink="http://www.w3.org/1999/xlink" xmlns:lucid="lucid" width="618" height="1800"><g transform="translate(0 60)" lucid:page-tab-id="0_0"><path d="M274.15 0c13.6 0 24.62 11.37 24.62 25.4 0 14.02-11.02 25.4-24.62 25.4H200.3c-13.6 0-24.6-11.38-24.6-25.4C175.7 11.37 186.7 0 200.3 0z" stroke="#3a414a" stroke-width=".5" fill="#fff"/><use xlink:href="#a" transform="matrix(1,0,0,1,180.69444071595234,5) translate(42.94444444444445 23.479166666666664)"/><path d="M175.7 82.2a6 6 0 0 1 6-6h111.07a6 6 0 0 1 6 6v64.2a6 6 0 0 1-6 6H181.7a6 6 0 0 1-6-6z" stroke="#3a414a" stroke-width=".5" fill="#fff"/><use xlink:href="#b" transform="matrix(1,0,0,1,187.69444071595234,88.19357867606931) translate(18.981481481481495 20.604166666666664)"/><use xlink:href="#c" transform="matrix(1,0,0,1,187.69444071595234,88.19357867606931) translate(67.75925925925925 20.604166666666664)"/><use xlink:href="#d" transform="matrix(1,0,0,1,187.69444071595234,88.19357867606931) translate(28.925925925925938 36.60416666666666)"/><path d="M237.23 51.3v9.32" stroke="#3a414a" stroke-width=".5" fill="none"/><path d="M237.48 51.3h-.5v-.25h.5z" stroke="#3a414a" stroke-width=".05" fill="#3a414a"/><path d="M237.23 75.14l-4.63-14.27h9.27z" stroke="#3a414a" stroke-width=".5" fill="#3a414a"/><path d="M175.7 183.78a6 6 0 0 1 6-6h111.07a6 6 0 0 1 6 6V248a6 6 0 0 1-6 6H181.7a6 6 0 0 1-6-6z" stroke="#3a414a" stroke-width=".5" fill="#fff"/><use xlink:href="#e" transform="matrix(1,0,0,1,187.69444071595234,189.7850169108284) translate(0.4444444444444713 20.604166666666664)"/><use xlink:href="#f" transform="matrix(1,0,0,1,187.69444071595234,189.7850169108284) translate(62.55555555555556 20.604166666666664)"/><use xlink:href="#g" transform="matrix(1,0,0,1,187.69444071595234,189.7850169108284) translate(34.85185185185186 36.60416666666666)"/><path d="M237.23 152.9v9.3" stroke="#3a414a" stroke-width=".5" fill="none"/><path d="M237.48 152.9h-.5v-.26h.5z" stroke="#3a414a" stroke-width=".05" fill="#3a414a"/><path d="M237.23 176.73l-4.63-14.27h9.27z" stroke="#3a414a" stroke-width=".5" fill="#3a414a"/><path d="M175.7 284.17a6 6 0 0 1 6-6h111.07a6 6 0 0 1 6 6v92a6 6 0 0 1-6 6H181.7a6 6 0 0 1-6-6z" stroke="#3a414a" stroke-width=".5" fill="#fff"/><use xlink:href="#h" transform="matrix(1,0,0,1,187.69444071595234,290.1721742629669) translate(5.648148148148167 25.666666666666664)"/><use xlink:href="#i" transform="matrix(1,0,0,1,187.69444071595234,290.1721742629669) translate(35.24074074074075 25.666666666666664)"/><use xlink:href="#j" transform="matrix(1,0,0,1,187.69444071595234,290.1721742629669) translate(52.2037037037037 25.666666666666664)"/><use xlink:href="#k" transform="matrix(1,0,0,1,187.69444071595234,290.1721742629669) translate(16.018518518518533 41.66666666666666)"/><use xlink:href="#l" transform="matrix(1,0,0,1,187.69444071595234,290.1721742629669) translate(53.68518518518518 41.66666666666666)"/><use xlink:href="#m" transform="matrix(1,0,0,1,187.69444071595234,290.1721742629669) translate(28.14814814814816 57.66666666666666)"/><path d="M237.23 254.48v8.12" stroke="#3a414a" stroke-width=".5" fill="none"/><path d="M237.48 254.5h-.5v-.27h.5z" stroke="#3a414a" stroke-width=".05" fill="#3a414a"/><path d="M237.23 277.1l-4.63-14.25h9.27z" stroke="#3a414a" stroke-width=".5" fill="#3a414a"/><path d="M232.13 773.97a9.7 9.7 0 0 1 10.2 0l51.34 31.78a3.7 3.7 0 0 1 0 6.32l-51.34 31.78a9.7 9.7 0 0 1-10.2 0l-51.33-31.78a3.7 3.7 0 0 1 0-6.32z" stroke="#3a414a" stroke-width=".5" fill="#cfe4ff"/><use xlink:href="#n" transform="matrix(1,0,0,1,180.69444071595234,775.8106657979685) translate(10.264259259259285 35.791666666666664)"/><use xlink:href="#o" transform="matrix(1,0,0,1,180.69444071595234,775.8106657979685) translate(37.63462962962964 35.791666666666664)"/><use xlink:href="#p" transform="matrix(1,0,0,1,180.69444071595234,775.8106657979685) translate(63.52351851851852 35.791666666666664)"/><path d="M175.7 891.1a6 6 0 0 1 6-6h111.07a6 6 0 0 1 6 6v64.2a6 6 0 0 1-6 6H181.7a6 6 0 0 1-6-6z" stroke="#3a414a" stroke-width=".5" fill="#fff"/><use xlink:href="#q" transform="matrix(1,0,0,1,187.69444071595234,897.1010338120724) translate(20.79629629629631 20.604166666666664)"/><use xlink:href="#r" transform="matrix(1,0,0,1,187.69444071595234,897.1010338120724) translate(30.388888888888896 36.60416666666666)"/><path d="M238.23 858.53h-2v-11.98h2z" stroke="#e81313" stroke-width=".05" fill="#e81313"/><path d="M237.23 845.55l1-.06v1.07h-2v-1.08z" fill="#e81313"/><path d="M237.23 845.52l1.03-.05v1.13h-2.05v-1.13zm-.97 1.03h1.95v-1.03l-.97.05-.97-.05z" stroke="#e81313" stroke-width=".05" fill="#e81313"/><path d="M237.23 881.6l-3.16-9.73h6.33z" fill="#e81313"/><path d="M237.23 884.85L233 871.87h2.12l2.1 6.5 2.13-6.5h2.1z" stroke="#e81313" stroke-width=".05" fill="#e81313"/><use xlink:href="#s" transform="matrix(1,0,0,1,229.85590998692797,858.5327217640493) translate(0 8.88888888888889)"/><path d="M232.13 1002.55a9.7 9.7 0 0 1 10.2 0l51.34 31.78a3.7 3.7 0 0 1 0 6.32l-51.34 31.78a9.7 9.7 0 0 1-10.2 0l-51.33-31.78a3.7 3.7 0 0 1 0-6.32z" stroke="#3a414a" stroke-width=".5" fill="#fff"/><use xlink:href="#t" transform="matrix(1,0,0,1,180.69444071595234,1004.3914018261761) translate(29.50500000000001 35.791666666666664)"/><use xlink:href="#u" transform="matrix(1,0,0,1,180.69444071595234,1004.3914018261761) translate(55.39388888888889 35.791666666666664)"/><path d="M237.23 961.8v23.72" stroke="#3a414a" stroke-width=".5" fill="none"/><path d="M237.48 961.8h-.5v-.25h.5z" stroke="#3a414a" stroke-width=".05" fill="#3a414a"/><path d="M237.23 1000.04l-4.63-14.27h9.27z" stroke="#3a414a" stroke-width=".5" fill="#3a414a"/><path d="M139.78 1031.45l.07.82.18.76.3.73.4.66.52.6.6.5.67.42.72.3.76.18.82.07h32.97l-.02 2h-33.03l-1.06-.1-1.08-.25-1-.42-.95-.58-.84-.7-.7-.85-.58-.93-.43-1.02-.25-1.07-.1-1.05V929.87h2zm20.5-221.54h-15.46l-.82.07-.76.18-.72.3-.67.4-.6.52-.5.6-.42.67-.3.72-.18.77-.06.82-.02 101.58h-2V814.87l.1-1.06.25-1.06.42-1 .57-.95.7-.84.85-.72.94-.57 1.02-.42 1.07-.26 1.05-.1h15.53z" stroke="#e81313" stroke-width=".05" fill="#e81313"/><path d="M178.87 1036.7l-.1.8.1.8.06.2h-1.17v-2h1.17z" fill="#e81313"/><path d="M178.9 1036.7l-.1.8.1.78.06.23h-1.22v-2.04h1.22zm-1.12-.2v1.96h1.12l-.06-.17-.08-.8.08-.82.06-.17z" stroke="#e81313" stroke-width=".05" fill="#e81313"/><path d="M175.55 808.9l-14.27 4.64v-9.27z" fill="#e81313"/><path d="M178.78 808.9l-18.5 6.02V802.9zm-16.5 3.27l10.03-3.26-10.02-3.25z" stroke="#e81313" stroke-width=".05" fill="#e81313"/><use xlink:href="#s" transform="matrix(1,0,0,1,131.40889981342744,916.5311749004986) translate(0 8.88888888888889)"/><path d="M232.13 1116.84a9.7 9.7 0 0 1 10.2 0l51.34 31.78a3.7 3.7 0 0 1 0 6.32l-51.34 31.78a9.7 9.7 0 0 1-10.2 0l-51.33-31.78a3.7 3.7 0 0 1 0-6.32z" stroke="#3a414a" stroke-width=".5" fill="#fff"/><use xlink:href="#v" transform="matrix(1,0,0,1,180.69444071595234,1118.6817698402801) translate(17.319814814814826 35.791666666666664)"/><use xlink:href="#w" transform="matrix(1,0,0,1,180.69444071595234,1118.6817698402801) translate(51.31981481481481 35.791666666666664)"/><path d="M238.23 1087.97h-2v-12.84h2z" stroke="#008a0e" stroke-width=".05" fill="#008a0e"/><path d="M237.23 1074.13l1-.06v1.08h-2v-1.08z" fill="#008a0e"/><path d="M237.23 1074.1l1.03-.05v1.13h-2.05v-1.13zm-.97 1.03h1.95v-1.03l-.97.05-.97-.05z" stroke="#008a0e" stroke-width=".05" fill="#008a0e"/><path d="M237.23 1111.9l-3.44-10.6h6.88z" fill="#008a0e"/><path d="M237.23 1115.14l-4.5-13.84h2.1l2.4 7.37 2.4-7.37h2.1z" stroke="#008a0e" stroke-width=".05" fill="#008a0e"/><use xlink:href="#x" transform="matrix(1,0,0,1,227.6645519622366,1087.9667086654988) translate(0 8.88888888888889)"/><path d="M344.92 776.8a6 6 0 0 1 6-6H462a6 6 0 0 1 6 6V841a6 6 0 0 1-6 6H350.92a6 6 0 0 1-6-6z" stroke="#3a414a" stroke-width=".5" fill="#fff"/><use xlink:href="#y" transform="matrix(1,0,0,1,356.92397503829574,782.8106657979685) translate(14.129629629629648 20.604166666666664)"/><use xlink:href="#z" transform="matrix(1,0,0,1,356.92397503829574,782.8106657979685) translate(62.24074074074073 20.604166666666664)"/><use xlink:href="#A" transform="matrix(1,0,0,1,356.92397503829574,782.8106657979685) translate(34.0925925925926 36.60416666666666)"/><path d="M310.6 809.9H296.7v-2h13.93z" stroke="#008a0e" stroke-width=".05" fill="#008a0e"/><path d="M296.7 809.9h-1.16l.06-.2.08-.8-.08-.8-.06-.2h1.16z" fill="#008a0e"/><path d="M296.73 809.93h-1.23l.07-.23.08-.8-.08-.8-.07-.22h1.23zm-1.16-2l.05.17.08.8-.08.8-.05.18h1.1v-1.95z" stroke="#008a0e" stroke-width=".05" fill="#008a0e"/><path d="M341.44 808.9l-11.7 3.8v-7.6z" fill="#008a0e"/><path d="M344.67 808.9l-14.93 4.86v-2.1l8.46-2.75-8.45-2.74v-2.1z" stroke="#008a0e" stroke-width=".05" fill="#008a0e"/><use xlink:href="#x" transform="matrix(1,0,0,1,310.60884078539516,802.2407884693365) translate(0 8.88888888888889)"/><path d="M406.46 847.5v69.7a6 6 0 0 1-6 6h-86.1" stroke="#3a414a" stroke-width=".5" fill="none"/><path d="M406.7 847.5h-.5v-.25h.5z" stroke="#3a414a" stroke-width=".05" fill="#3a414a"/><path d="M299.83 923.2l14.27-4.64v9.27z" stroke="#3a414a" stroke-width=".5" fill="#3a414a"/><path d="M194.47 1248.36a7.8 7.8 0 0 1 7.54-5.8h90.77a4.6 4.6 0 0 1 4.45 5.8l-17.22 64.6a7.8 7.8 0 0 1-7.55 5.8H181.7a4.6 4.6 0 0 1-4.46-5.8z" stroke="#3a414a" stroke-width=".5" fill="#c3f7c8"/><use xlink:href="#B" transform="matrix(1,0,0,1,180.69444071595234,1247.5623976008667) translate(16.560555555555574 35.791666666666664)"/><use xlink:href="#C" transform="matrix(1,0,0,1,180.69444071595234,1247.5623976008667) translate(42.48648148148149 35.791666666666664)"/><path d="M200 1377.24a7.8 7.8 0 0 1 7.55-5.8h90.75a4.6 4.6 0 0 1 4.46 5.8l-17.23 64.6a7.8 7.8 0 0 1-7.54 5.8h-90.77a4.6 4.6 0 0 1-4.45-5.8z" stroke="#3a414a" stroke-width=".5" fill="#fff"/><use xlink:href="#D" transform="matrix(1,0,0,1,186.22868771363204,1376.4430253614514) translate(18.542037037037055 27.416666666666664)"/><use xlink:href="#E" transform="matrix(1,0,0,1,186.22868771363204,1376.4430253614514) translate(62.24574074074074 27.416666666666664)"/><use xlink:href="#F" transform="matrix(1,0,0,1,186.22868771363204,1376.4430253614514) translate(38.22722222222223 43.416666666666664)"/><path d="M237.66 1503.16a9.7 9.7 0 0 1 10.2 0l51.34 31.78a3.7 3.7 0 0 1 0 6.32l-51.33 31.78a9.7 9.7 0 0 1-10.2 0l-51.34-31.78a3.7 3.7 0 0 1 0-6.32z" stroke="#3a414a" stroke-width=".5" fill="#fff"/><use xlink:href="#G" transform="matrix(1,0,0,1,186.22868771363204,1505) translate(21.727222222222238 35.791666666666664)"/><use xlink:href="#H" transform="matrix(1,0,0,1,186.22868771363204,1505) translate(51.31981481481482 35.791666666666664)"/><path d="M279.7 1629.2c13.58 0 24.6 11.38 24.6 25.4 0 14.03-11.02 25.4-24.6 25.4h-73.86c-13.6 0-24.6-11.37-24.6-25.4 0-14.02 11-25.4 24.6-25.4z" stroke="#3a414a" stroke-width=".5" fill="#fff"/><use xlink:href="#I" transform="matrix(1,0,0,1,186.22868771363204,1634.2042808826204) translate(45.14814814814815 23.479166666666664)"/><path d="M243.77 1610.45h-2v-1.94h2zm0-15.27h-2v-19.44h2z" stroke="#008a0e" stroke-width=".05" fill="#008a0e"/><path d="M242.77 1574.74l1-.06v1.08h-2v-1.08z" fill="#008a0e"/><path d="M242.77 1574.7l1.02-.05v1.14h-2.06v-1.14zm-.98 1.04h1.94v-1.03l-.97.06-.98-.05z" stroke="#008a0e" stroke-width=".05" fill="#008a0e"/><path d="M242.77 1625.72l-4.64-14.27h9.27z" fill="#008a0e"/><path d="M242.77 1628.95l-6.02-18.5h12.03zm-3.26-16.5l3.27 10.03 3.26-10.03z" stroke="#008a0e" stroke-width=".05" fill="#008a0e"/><use xlink:href="#J" transform="matrix(1,0,0,1,233.19879875828263,1595.1789873947441) translate(0 8.888888888888888)"/><path d="M235.5 1223.8h-2v-1.77h2zm2.73-15.1h-2v-19.28h2z" stroke="#008a0e" stroke-width=".05" fill="#008a0e"/><path d="M237.23 1188.42l1-.06v1.08h-2v-1.08z" fill="#008a0e"/><path d="M237.23 1188.4l1.03-.06v1.13h-2.05v-1.13zm-.97 1.02h1.95v-1.03l-.97.04-.97-.05z" stroke="#008a0e" stroke-width=".05" fill="#008a0e"/><path d="M234.5 1239.08l-4.65-14.27h9.27z" fill="#008a0e"/><path d="M234.5 1242.3l-6.02-18.5h12.02zm-3.27-16.5l3.26 10.04 3.25-10.03z" stroke="#008a0e" stroke-width=".05" fill="#008a0e"/><use xlink:href="#J" transform="matrix(1,0,0,1,226.29265863218305,1208.6989544342578) translate(0 8.888888888888888)"/><path d="M239.98 1319.26v25.8a.04.04 0 0 0 .03.04.04.04 0 0 1 .05.03v10.74" stroke="#3a414a" stroke-width=".5" fill="none"/><path d="M240.23 1319.26h-.5v-.25h.5z" stroke="#3a414a" stroke-width=".05" fill="#3a414a"/><path d="M240.05 1370.38l-4.64-14.26h9.28z" stroke="#3a414a" stroke-width=".5" fill="#3a414a"/><path d="M245.5 1448.14v25.17a1.36 1.36 0 0 1-1.37 1.37 1.36 1.36 0 0 0-1.36 1.36v10.1" stroke="#3a414a" stroke-width=".5" fill="none"/><path d="M245.74 1448.14h-.5v-.25h.5z" stroke="#3a414a" stroke-width=".05" fill="#3a414a"/><path d="M242.77 1500.65l-4.64-14.27h9.27z" stroke="#3a414a" stroke-width=".5" fill="#3a414a"/><path d="M581 1572.46l-.08 1.06-.26 1.07-.42 1-.57.94-.72.83-.83.72-.94.56-1.02.42-1.06.26-1.06.08H347.17l-1.05-.08-1.07-.26-1.02-.42-.93-.57-.84-.73-.7-.83-.6-.94-.4-1-.26-1.08-.1-1.06v-28.32l-.05-.83-.18-.75-.3-.72-.4-.67-.52-.6-.6-.5-.67-.4-.72-.32-.76-.18-.83-.06H302.2v-2h33.05l1.06.08 1.08.26 1 .42.95.57.84.7.7.85.58.94.42 1 .26 1.08.08 1.06v28.32l.08.82.18.76.3.73.4.66.52.6.6.5.67.4.72.3.76.2.82.06h226.7l.83-.06.76-.2.73-.3.67-.4.6-.5.5-.6.4-.67.3-.74.2-.76.06-.82v-700.3h2zm-5.9-1459.1l1.06.27 1.02.42.94.58.83.7.72.84.57.94.42 1.03.26 1.06.08 1.05v738.5h-2V120.33l-.07-.82-.18-.75-.3-.73-.4-.67-.52-.6-.6-.5-.66-.4-.73-.3-.76-.2-.82-.06H317.52v-2h256.52z" stroke="#e81313" stroke-width=".05" fill="#e81313"/><path d="M302.24 1539.1h-1.17l.06-.2.08-.8-.07-.8-.06-.2h1.17z" fill="#e81313"/><path d="M302.26 1539.12h-1.22l.07-.23.1-.8-.1-.8-.06-.23h1.22zm-1.16-2l.06.17.08.8-.08.8-.06.17h1.1v-1.95z" stroke="#e81313" stroke-width=".05" fill="#e81313"/><path d="M316.52 118.93l-14.26-4.64 14.26-4.64z" fill="#e81313"/><path d="M317.52 120.3l-18.5-6 18.5-6.02zm-12.03-6l10.02 3.25v-6.52z" stroke="#e81313" stroke-width=".05" fill="#e81313"/><use xlink:href="#K" transform="matrix(1,0,0,1,572.6234567901234,858.7539199374374) translate(0 8.888888888888888)"/><path d="M180.47 412.16a7.8 7.8 0 0 1 7.54-5.8h118.77a4.6 4.6 0 0 1 4.45 5.8L294 476.76a7.8 7.8 0 0 1-7.55 5.8H167.7a4.6 4.6 0 0 1-4.46-5.8z" stroke="#3a414a" stroke-width=".5" fill="#fff"/><use xlink:href="#D" transform="matrix(1,0,0,1,166.69444071595234,411.3657529390362) translate(29.20870370370372 21.135416666666664)"/><use xlink:href="#L" transform="matrix(1,0,0,1,166.69444071595234,411.3657529390362) translate(72.91240740740741 21.135416666666664)"/><use xlink:href="#M" transform="matrix(1,0,0,1,166.69444071595234,411.3657529390362) translate(19.81981481481484 37.13541666666666)"/><use xlink:href="#N" transform="matrix(1,0,0,1,166.69444071595234,411.3657529390362) translate(63.48648148148148 37.13541666666666)"/><use xlink:href="#F" transform="matrix(1,0,0,1,166.69444071595234,411.3657529390362) translate(49.72722222222223 53.13541666666666)"/><path d="M237.23 382.67v10.74" stroke="#3a414a" stroke-width=".5" fill="none"/><path d="M237.48 382.68h-.5v-.26h.5z" stroke="#3a414a" stroke-width=".05" fill="#3a414a"/><path d="M234.78 405.32l-1.66-14.9 9.08 1.87z" stroke="#3a414a" stroke-width=".5" fill="#3a414a"/><path d="M232.13 602.37a9.7 9.7 0 0 1 10.2 0l51.34 31.78a3.7 3.7 0 0 1 0 6.32l-51.34 31.78a9.7 9.7 0 0 1-10.2 0l-51.33-31.78a3.7 3.7 0 0 1 0-6.32z" stroke="#3a414a" stroke-width=".5" fill="#ff8f8f"/><use xlink:href="#O" transform="matrix(1,0,0,1,180.69444071595234,604.2124249073038) translate(16.91240740740742 35.791666666666664)"/><use xlink:href="#P" transform="matrix(1,0,0,1,180.69444071595234,604.2124249073038) translate(59.06055555555555 35.791666666666664)"/><use xlink:href="#Q" transform="matrix(1,0,0,1,180.69444071595234,604.2124249073038) translate(81.28277777777777 35.791666666666664)"/><path d="M77 1403.5l.06.82.2.76.3.73.4.68.5.6.6.5.67.4.73.3.76.2.82.06h90.6v2H81.95l-1.06-.08-1.06-.26-1.02-.42-.94-.58-.83-.7-.72-.84-.57-.94-.42-1.02-.26-1.07-.08-1.05V1041.6h2zm100.78-765.2H82.05l-.82.07-.76.2-.73.3-.67.4-.6.5-.5.6-.4.67-.3.73-.2.76-.06.82v374.25h-2V643.27l.08-1.06.26-1.06.42-1 .57-.95.72-.84.83-.72.94-.57 1.02-.42 1.06-.26 1.06-.1h95.83z" stroke="#008a0e" stroke-width=".05" fill="#008a0e"/><path d="M178.87 636.5l-.1.8.1.8.06.2h-1.17v-2h1.17z" fill="#008a0e"/><path d="M178.9 636.5l-.1.8.1.8.06.23h-1.22v-2.05h1.22zm-1.12-.17v1.95h1.12l-.06-.16-.08-.8.08-.82.06-.17z" stroke="#008a0e" stroke-width=".05" fill="#008a0e"/><path d="M187.9 1409.54l-14.27 4.63v-9.27z" fill="#008a0e"/><path d="M191.13 1409.54l-18.5 6v-12zm-16.5 3.26l10.03-3.26-10.03-3.26z" stroke="#008a0e" stroke-width=".05" fill="#008a0e"/><use xlink:href="#R" transform="matrix(1,0,0,1,58.77777777777778,1017.5963714066502) translate(0 16)"/><path d="M232.13 505.95a9.7 9.7 0 0 1 10.2 0l51.34 31.78a3.7 3.7 0 0 1 0 6.3l-51.34 31.8a9.7 9.7 0 0 1-10.2 0l-51.33-31.8a3.7 3.7 0 0 1 0-6.3z" stroke="#3a414a" stroke-width=".5" fill="#fff7a1"/><use xlink:href="#n" transform="matrix(1,0,0,1,180.69444071595234,507.7890889231699) translate(39.11611111111112 19.041666666666664)"/><use xlink:href="#S" transform="matrix(1,0,0,1,180.69444071595234,507.7890889231699) translate(66.48648148148148 19.041666666666664)"/><use xlink:href="#T" transform="matrix(1,0,0,1,180.69444071595234,507.7890889231699) translate(27.28277777777779 35.04166666666666)"/><use xlink:href="#U" transform="matrix(1,0,0,1,180.69444071595234,507.7890889231699) translate(36.912407407407414 51.04166666666666)"/><path d="M21 1648.56l.07.82.18.77.3.72.4.67.52.6.6.5.66.4.73.3.76.2.82.06h136.44v2H25.96l-1.06-.08-1.06-.26-1.02-.42-.94-.57-.83-.72-.72-.83-.57-.94-.42-1-.26-1.08-.08-1.06V1105.5h2zM177.78 541.9H26.04l-.82.05-.76.18-.73.3-.67.4-.6.52-.5.6-.4.67-.3.72-.2.76-.06.82v545.25h-2V546.85l.08-1.06.26-1.08.42-1 .57-.95.72-.84.83-.7.94-.58 1.02-.42 1.06-.26 1.06-.08H177.8z" stroke="#008a0e" stroke-width=".05" fill="#008a0e"/><path d="M178.87 540.1l-.1.8.1.8.06.2h-1.17v-2h1.17z" fill="#008a0e"/><path d="M178.9 540.1l-.1.8.1.78.06.23h-1.22v-2.04h1.22zm-1.12-.2v1.96h1.12l-.06-.17-.08-.8.08-.82.06-.17z" stroke="#008a0e" stroke-width=".05" fill="#008a0e"/><path d="M177.74 1654.6l-14.26 4.64v-9.27z" fill="#008a0e"/><path d="M180.98 1654.6l-18.5 6v-12zm-16.5 3.26l10.03-3.26-10.02-3.26z" stroke="#008a0e" stroke-width=".05" fill="#008a0e"/><g><use xlink:href="#J" transform="matrix(1,0,0,1,10.4320987654321,1092.1733866139843) translate(0 8.888888888888888)"/></g><path d="M238.23 582.17h-2v-3.64h2z" stroke="#e81313" stroke-width=".05" fill="#e81313"/><path d="M237.23 577.53l1-.06v1.08h-2v-1.08z" fill="#e81313"/><path d="M237.23 577.5l1.03-.06v1.14h-2.05v-1.14zm-.97 1.03h1.95v-1.03l-.97.05-.97-.05z" stroke="#e81313" stroke-width=".05" fill="#e81313"/><path d="M237.23 597.43l-.54-1.67h1.08z" fill="#e81313"/><path d="M237.23 600.67l-1.6-4.9h3.2zm5.93-18.24H231.3l-.08-.26h12.02z" stroke="#e81313" stroke-width=".05" fill="#e81313"/><g><use xlink:href="#K" transform="matrix(1,0,0,1,229.8559097852943,582.4308797363179) translate(0 8.888888888888888)"/></g><path d="M239.85 483.3v7.74" stroke="#3a414a" fill="none"/><path d="M240.35 483.32h-1v-.5h1z" stroke="#3a414a" stroke-width=".05" fill="#3a414a"/><path d="M237.53 503.22l-1.9-14.88 9.12 1.73z" stroke="#3a414a" fill="#3a414a"/><path d="M497 1145.82l-.08 1.05-.26 1.07-.42 1.02-.57.93-.72.83-.83.7-.94.6-1.02.4-1.06.26-1.06.08h-194.1v-2h194.02l.82-.07.76-.17.73-.3.67-.4.6-.52.5-.58.4-.67.3-.73.2-.76.06-.82V749.7h2zm-5.9-816.56l1.06.25 1.02.43.94.58.83.72.72.84.57.93.42 1 .26 1.08.08 1.05v400.22h-2V336.2l-.06-.8-.2-.77-.3-.73-.4-.66-.5-.6-.6-.5-.67-.42-.73-.3-.76-.18-.82-.07H317.52v-2h172.52z" stroke="#e81313" stroke-width=".05" fill="#e81313"/><path d="M295.95 1152.78h-4.02v-2h4.02z" stroke="#e81313" stroke-width=".05" fill="#e81313"/><path d="M316.52 334.8l-14.26-4.63 14.26-4.63z" fill="#e81313"/><path d="M317.52 336.18l-18.5-6 18.5-6.02zm-12.03-6l10.02 3.25v-6.52z" stroke="#e81313" stroke-width=".05" fill="#e81313"/><g><use xlink:href="#K" transform="matrix(1,0,0,1,488.62345679012344,736.3543710963622) translate(0 8.888888888888888)"/></g><path d="M175.43 701.43a7.8 7.8 0 0 1 7.55-5.8h123.8a4.6 4.6 0 0 1 4.44 5.8l-12.2 45.72a7.8 7.8 0 0 1-7.53 5.8H167.7a4.6 4.6 0 0 1-4.46-5.8z" stroke="#3a414a" stroke-width=".5" fill="#fff"/><g><use xlink:href="#D" transform="matrix(1,0,0,1,166.69444071595234,700.6357608914377) translate(5.764259259259285 25.666666666666664)"/><use xlink:href="#V" transform="matrix(1,0,0,1,166.69444071595234,700.6357608914377) translate(49.46796296296297 25.666666666666664)"/><use xlink:href="#W" transform="matrix(1,0,0,1,166.69444071595234,700.6357608914377) translate(89.39388888888888 25.666666666666664)"/></g><path d="M238.23 677.72h-2v-3.34h2z" stroke="#e81313" stroke-width=".05" fill="#e81313"/><path d="M238.23 674.4h-2v-4h2z" stroke="#e81313" stroke-width=".05" fill="#e81313"/><path d="M235.72 692.17l-.23-1.12h.73zm-.84-14.45h-2.12l-.05-.25z" fill="#e81313"/><path d="M235.36 695.4l-.9-4.35h2.87zm8.04-17.73l-.02.05h-11.64l-.28-1.4z" stroke="#e81313" stroke-width=".05" fill="#e81313"/><g><use xlink:href="#K" transform="matrix(1,0,0,1,228.9183195140234,677.7186132027223) translate(0 8.888888888888888)"/></g><path d="M239.1 753.44v5.94" stroke="#3a414a" stroke-width=".5" fill="none"/><path d="M239.36 753.45h-.5v-.26h.5z" stroke="#3a414a" stroke-width=".05" fill="#3a414a"/><path d="M237.34 772.03l-2.62-14.77 9.2 1.28z" stroke="#3a414a" stroke-width=".5" fill="#3a414a"/><defs><path fill="#3a414a" d="M185-189c-5-48-123-54-124 2 14 75 158 14 163 119 3 78-121 87-175 55-17-10-28-26-33-46l33-7c5 56 141 63 141-1 0-78-155-14-162-118-5-82 145-84 179-34 5 7 8 16 11 25" id="X"/><path fill="#3a414a" d="M59-47c-2 24 18 29 38 22v24C64 9 27 4 27-40v-127H5v-23h24l9-43h21v43h35v23H59v120" id="Y"/><path fill="#3a414a" d="M141-36C126-15 110 5 73 4 37 3 15-17 15-53c-1-64 63-63 125-63 3-35-9-54-41-54-24 1-41 7-42 31l-33-3c5-37 33-52 76-52 45 0 72 20 72 64v82c-1 20 7 32 28 27v20c-31 9-61-2-59-35zM48-53c0 20 12 33 32 33 41-3 63-29 60-74-43 2-92-5-92 41" id="Z"/><path fill="#3a414a" d="M114-163C36-179 61-72 57 0H25l-1-190h30c1 12-1 29 2 39 6-27 23-49 58-41v29" id="aa"/><g id="a"><use transform="matrix(0.03703703703703702,0,0,0.03703703703703702,0,0)" xlink:href="#X"/><use transform="matrix(0.03703703703703702,0,0,0.03703703703703702,8.888888888888886,0)" xlink:href="#Y"/><use transform="matrix(0.03703703703703702,0,0,0.03703703703703702,12.592592592592586,0)" xlink:href="#Z"/><use transform="matrix(0.03703703703703702,0,0,0.03703703703703702,19.999999999999993,0)" xlink:href="#aa"/><use transform="matrix(0.03703703703703702,0,0,0.03703703703703702,24.407407407407398,0)" xlink:href="#Y"/></g><path fill="#3a414a" d="M33 0v-248h34V0H33" id="ab"/><path fill="#3a414a" d="M117-194c89-4 53 116 60 194h-32v-121c0-31-8-49-39-48C34-167 62-67 57 0H25l-1-190h30c1 10-1 24 2 32 11-22 29-35 61-36" id="ac"/><path fill="#3a414a" d="M24-231v-30h32v30H24zM24 0v-190h32V0H24" id="ad"/><path fill="#3a414a" d="M24 0v-261h32V0H24" id="ae"/><path fill="#3a414a" d="M135-143c-3-34-86-38-87 0 15 53 115 12 119 90S17 21 10-45l28-5c4 36 97 45 98 0-10-56-113-15-118-90-4-57 82-63 122-42 12 7 21 19 24 35" id="af"/><path fill="#3a414a" d="M100-194c63 0 86 42 84 106H49c0 40 14 67 53 68 26 1 43-12 49-29l28 8c-11 28-37 45-77 45C44 4 14-33 15-96c1-61 26-98 85-98zm52 81c6-60-76-77-97-28-3 7-6 17-6 28h103" id="ag"/><g id="b"><use transform="matrix(0.03703703703703702,0,0,0.03703703703703702,0,0)" xlink:href="#ab"/><use transform="matrix(0.03703703703703702,0,0,0.03703703703703702,3.703703703703702,0)" xlink:href="#ac"/><use transform="matrix(0.03703703703703702,0,0,0.03703703703703702,11.111111111111107,0)" xlink:href="#ad"/><use transform="matrix(0.03703703703703702,0,0,0.03703703703703702,14.037037037037031,0)" xlink:href="#Y"/><use transform="matrix(0.03703703703703702,0,0,0.03703703703703702,17.740740740740733,0)" xlink:href="#Z"/><use transform="matrix(0.03703703703703702,0,0,0.03703703703703702,25.148148148148138,0)" xlink:href="#ae"/><use transform="matrix(0.03703703703703702,0,0,0.03703703703703702,28.074074074074062,0)" xlink:href="#ad"/><use transform="matrix(0.03703703703703702,0,0,0.03703703703703702,30.999999999999986,0)" xlink:href="#af"/><use transform="matrix(0.03703703703703702,0,0,0.03703703703703702,37.66666666666665,0)" xlink:href="#ag"/></g><g id="c"><use transform="matrix(0.03703703703703702,0,0,0.03703703703703702,0,0)" xlink:href="#Z"/><use transform="matrix(0.03703703703703702,0,0,0.03703703703703702,7.407407407407404,0)" xlink:href="#ae"/><use transform="matrix(0.03703703703703702,0,0,0.03703703703703702,10.333333333333329,0)" xlink:href="#ae"/></g><g id="d"><use transform="matrix(0.03703703703703702,0,0,0.03703703703703702,0,0)" xlink:href="#ag"/><use transform="matrix(0.03703703703703702,0,0,0.03703703703703702,7.407407407407404,0)" xlink:href="#ac"/><use transform="matrix(0.03703703703703702,0,0,0.03703703703703702,14.814814814814808,0)" xlink:href="#Y"/><use transform="matrix(0.03703703703703702,0,0,0.03703703703703702,18.51851851851851,0)" xlink:href="#ad"/><use transform="matrix(0.03703703703703702,0,0,0.03703703703703702,21.444444444444432,0)" xlink:href="#Y"/><use transform="matrix(0.03703703703703702,0,0,0.03703703703703702,25.148148148148135,0)" xlink:href="#ad"/><use transform="matrix(0.03703703703703702,0,0,0.03703703703703702,28.07407407407406,0)" xlink:href="#ag"/><use transform="matrix(0.03703703703703702,0,0,0.03703703703703702,35.48148148148146,0)" xlink:href="#af"/></g><path fill="#3a414a" d="M212-179c-10-28-35-45-73-45-59 0-87 40-87 99 0 60 29 101 89 101 43 0 62-24 78-52l27 14C228-24 195 4 139 4 59 4 22-46 18-125c-6-104 99-153 187-111 19 9 31 26 39 46" id="ah"/><path fill="#3a414a" d="M106-169C34-169 62-67 57 0H25v-261h32l-1 103c12-21 28-36 61-36 89 0 53 116 60 194h-32v-121c2-32-8-49-39-48" id="ai"/><path fill="#3a414a" d="M96-169c-40 0-48 33-48 73s9 75 48 75c24 0 41-14 43-38l32 2c-6 37-31 61-74 61-59 0-76-41-82-99-10-93 101-131 147-64 4 7 5 14 7 22l-32 3c-4-21-16-35-41-35" id="aj"/><g id="e"><use transform="matrix(0.03703703703703702,0,0,0.03703703703703702,0,0)" xlink:href="#ah"/><use transform="matrix(0.03703703703703702,0,0,0.03703703703703702,9.592592592592588,0)" xlink:href="#ai"/><use transform="matrix(0.03703703703703702,0,0,0.03703703703703702,16.999999999999993,0)" xlink:href="#Z"/><use transform="matrix(0.03703703703703702,0,0,0.03703703703703702,24.407407407407398,0)" xlink:href="#aa"/><use transform="matrix(0.03703703703703702,0,0,0.03703703703703702,28.814814814814802,0)" xlink:href="#Z"/><use transform="matrix(0.03703703703703702,0,0,0.03703703703703702,36.22222222222221,0)" xlink:href="#aj"/><use transform="matrix(0.03703703703703702,0,0,0.03703703703703702,42.88888888888887,0)" xlink:href="#Y"/><use transform="matrix(0.03703703703703702,0,0,0.03703703703703702,46.592592592592574,0)" xlink:href="#ag"/><use transform="matrix(0.03703703703703702,0,0,0.03703703703703702,53.99999999999998,0)" xlink:href="#aa"/></g><g id="f"><use transform="matrix(0.03703703703703702,0,0,0.03703703703703702,0,0)" xlink:href="#ag"/><use transform="matrix(0.03703703703703702,0,0,0.03703703703703702,7.407407407407404,0)" xlink:href="#ac"/><use transform="matrix(0.03703703703703702,0,0,0.03703703703703702,14.814814814814808,0)" xlink:href="#Y"/><use transform="matrix(0.03703703703703702,0,0,0.03703703703703702,18.51851851851851,0)" xlink:href="#ag"/><use transform="matrix(0.03703703703703702,0,0,0.03703703703703702,25.925925925925913,0)" xlink:href="#aa"/><use transform="matrix(0.03703703703703702,0,0,0.03703703703703702,30.333333333333314,0)" xlink:href="#af"/></g><path fill="#3a414a" d="M100-194c62-1 85 37 85 99 1 63-27 99-86 99S16-35 15-95c0-66 28-99 85-99zM99-20c44 1 53-31 53-75 0-43-8-75-51-75s-53 32-53 75 10 74 51 75" id="ak"/><path fill="#3a414a" d="M210-169c-67 3-38 105-44 169h-31v-121c0-29-5-50-35-48C34-165 62-65 56 0H25l-1-190h30c1 10-1 24 2 32 10-44 99-50 107 0 11-21 27-35 58-36 85-2 47 119 55 194h-31v-121c0-29-5-49-35-48" id="al"/><g id="g"><use transform="matrix(0.03703703703703702,0,0,0.03703703703703702,0,0)" xlink:href="#aa"/><use transform="matrix(0.03703703703703702,0,0,0.03703703703703702,4.407407407407406,0)" xlink:href="#ak"/><use transform="matrix(0.03703703703703702,0,0,0.03703703703703702,11.81481481481481,0)" xlink:href="#ak"/><use transform="matrix(0.03703703703703702,0,0,0.03703703703703702,19.222222222222214,0)" xlink:href="#al"/></g><path fill="#3a414a" d="M240 0l2-218c-23 76-54 145-80 218h-23L58-218 59 0H30v-248h44l77 211c21-75 51-140 76-211h43V0h-30" id="am"/><path fill="#3a414a" d="M115-194c55 1 70 41 70 98S169 2 115 4C84 4 66-9 55-30l1 105H24l-1-265h31l2 30c10-21 28-34 59-34zm-8 174c40 0 45-34 45-75s-6-73-45-74c-42 0-51 32-51 76 0 43 10 73 51 73" id="an"/><g id="h"><use transform="matrix(0.03703703703703702,0,0,0.03703703703703702,0,0)" xlink:href="#am"/><use transform="matrix(0.03703703703703702,0,0,0.03703703703703702,11.074074074074069,0)" xlink:href="#Z"/><use transform="matrix(0.03703703703703702,0,0,0.03703703703703702,18.481481481481474,0)" xlink:href="#an"/></g><g id="i"><use transform="matrix(0.03703703703703702,0,0,0.03703703703703702,0,0)" xlink:href="#Z"/><use transform="matrix(0.03703703703703702,0,0,0.03703703703703702,7.407407407407404,0)" xlink:href="#ae"/><use transform="matrix(0.03703703703703702,0,0,0.03703703703703702,10.333333333333329,0)" xlink:href="#ae"/></g><g id="j"><use transform="matrix(0.03703703703703702,0,0,0.03703703703703702,0,0)" xlink:href="#ag"/><use transform="matrix(0.03703703703703702,0,0,0.03703703703703702,7.407407407407404,0)" xlink:href="#ac"/><use transform="matrix(0.03703703703703702,0,0,0.03703703703703702,14.814814814814808,0)" xlink:href="#Y"/><use transform="matrix(0.03703703703703702,0,0,0.03703703703703702,18.51851851851851,0)" xlink:href="#ad"/><use transform="matrix(0.03703703703703702,0,0,0.03703703703703702,21.444444444444432,0)" xlink:href="#Y"/><use transform="matrix(0.03703703703703702,0,0,0.03703703703703702,25.148148148148135,0)" xlink:href="#ad"/><use transform="matrix(0.03703703703703702,0,0,0.03703703703703702,28.07407407407406,0)" xlink:href="#ag"/><use transform="matrix(0.03703703703703702,0,0,0.03703703703703702,35.48148148148146,0)" xlink:href="#af"/></g><path fill="#3a414a" d="M206 0h-36l-40-164L89 0H53L-1-190h32L70-26l43-164h34l41 164 42-164h31" id="ao"/><g id="k"><use transform="matrix(0.03703703703703702,0,0,0.03703703703703702,0,0)" xlink:href="#ao"/><use transform="matrix(0.03703703703703702,0,0,0.03703703703703702,9.592592592592588,0)" xlink:href="#ad"/><use transform="matrix(0.03703703703703702,0,0,0.03703703703703702,12.51851851851851,0)" xlink:href="#Y"/><use transform="matrix(0.03703703703703702,0,0,0.03703703703703702,16.222222222222214,0)" xlink:href="#ai"/><use transform="matrix(0.03703703703703702,0,0,0.03703703703703702,23.62962962962962,0)" xlink:href="#ad"/><use transform="matrix(0.03703703703703702,0,0,0.03703703703703702,26.555555555555543,0)" xlink:href="#ac"/></g><g id="l"><use transform="matrix(0.03703703703703702,0,0,0.03703703703703702,0,0)" xlink:href="#aa"/><use transform="matrix(0.03703703703703702,0,0,0.03703703703703702,4.407407407407406,0)" xlink:href="#ak"/><use transform="matrix(0.03703703703703702,0,0,0.03703703703703702,11.81481481481481,0)" xlink:href="#ak"/><use transform="matrix(0.03703703703703702,0,0,0.03703703703703702,19.222222222222214,0)" xlink:href="#al"/></g><path fill="#3a414a" d="M115-194c53 0 69 39 70 98 0 66-23 100-70 100C84 3 66-7 56-30L54 0H23l1-261h32v101c10-23 28-34 59-34zm-8 174c40 0 45-34 45-75 0-40-5-75-45-74-42 0-51 32-51 76 0 43 10 73 51 73" id="ap"/><path fill="#3a414a" d="M84 4C-5 8 30-112 23-190h32v120c0 31 7 50 39 49 72-2 45-101 50-169h31l1 190h-30c-1-10 1-25-2-33-11 22-28 36-60 37" id="aq"/><path fill="#3a414a" d="M85-194c31 0 48 13 60 33l-1-100h32l1 261h-30c-2-10 0-23-3-31C134-8 116 4 85 4 32 4 16-35 15-94c0-66 23-100 70-100zm9 24c-40 0-46 34-46 75 0 40 6 74 45 74 42 0 51-32 51-76 0-42-9-74-50-73" id="ar"/><g id="m"><use transform="matrix(0.03703703703703702,0,0,0.03703703703703702,0,0)" xlink:href="#ap"/><use transform="matrix(0.03703703703703702,0,0,0.03703703703703702,7.407407407407404,0)" xlink:href="#ak"/><use transform="matrix(0.03703703703703702,0,0,0.03703703703703702,14.814814814814808,0)" xlink:href="#aq"/><use transform="matrix(0.03703703703703702,0,0,0.03703703703703702,22.222222222222214,0)" xlink:href="#ac"/><use transform="matrix(0.03703703703703702,0,0,0.03703703703703702,29.629629629629616,0)" xlink:href="#ar"/><use transform="matrix(0.03703703703703702,0,0,0.03703703703703702,37.03703703703702,0)" xlink:href="#af"/></g><path fill="#3a414a" d="M197 0v-115H63V0H30v-248h33v105h134v-105h34V0h-34" id="as"/><g id="n"><use transform="matrix(0.03703703703703702,0,0,0.03703703703703702,0,0)" xlink:href="#as"/><use transform="matrix(0.03703703703703702,0,0,0.03703703703703702,9.592592592592588,0)" xlink:href="#Z"/><use transform="matrix(0.03703703703703702,0,0,0.03703703703703702,16.999999999999993,0)" xlink:href="#af"/></g><g id="o"><use transform="matrix(0.03703703703703702,0,0,0.03703703703703702,0,0)" xlink:href="#al"/><use transform="matrix(0.03703703703703702,0,0,0.03703703703703702,11.074074074074069,0)" xlink:href="#ag"/><use transform="matrix(0.03703703703703702,0,0,0.03703703703703702,18.481481481481474,0)" xlink:href="#Y"/></g><path fill="#3a414a" d="M179-190L93 31C79 59 56 82 12 73V49c39 6 53-20 64-50L1-190h34L92-34l54-156h33" id="at"/><path fill="#3a414a" d="M103-251c84 0 111 97 45 133-19 10-37 24-39 52H78c0-63 77-55 77-114 0-30-21-42-52-43-32 0-53 17-56 46l-32-2c7-45 34-72 88-72zM77 0v-35h34V0H77" id="au"/><g id="p"><use transform="matrix(0.03703703703703702,0,0,0.03703703703703702,0,0)" xlink:href="#ag"/><use transform="matrix(0.03703703703703702,0,0,0.03703703703703702,7.407407407407404,0)" xlink:href="#ac"/><use transform="matrix(0.03703703703703702,0,0,0.03703703703703702,14.814814814814808,0)" xlink:href="#Y"/><use transform="matrix(0.03703703703703702,0,0,0.03703703703703702,18.51851851851851,0)" xlink:href="#ad"/><use transform="matrix(0.03703703703703702,0,0,0.03703703703703702,21.444444444444432,0)" xlink:href="#Y"/><use transform="matrix(0.03703703703703702,0,0,0.03703703703703702,25.148148148148135,0)" xlink:href="#at"/><use transform="matrix(0.03703703703703702,0,0,0.03703703703703702,31.814814814814795,0)" xlink:href="#au"/></g><g id="q"><use transform="matrix(0.03703703703703702,0,0,0.03703703703703702,0,0)" xlink:href="#ah"/><use transform="matrix(0.03703703703703702,0,0,0.03703703703703702,9.592592592592588,0)" xlink:href="#ai"/><use transform="matrix(0.03703703703703702,0,0,0.03703703703703702,16.999999999999993,0)" xlink:href="#Z"/><use transform="matrix(0.03703703703703702,0,0,0.03703703703703702,24.407407407407398,0)" xlink:href="#aa"/><use transform="matrix(0.03703703703703702,0,0,0.03703703703703702,28.814814814814802,0)" xlink:href="#Z"/><use transform="matrix(0.03703703703703702,0,0,0.03703703703703702,36.22222222222221,0)" xlink:href="#aj"/><use transform="matrix(0.03703703703703702,0,0,0.03703703703703702,42.88888888888887,0)" xlink:href="#Y"/><use transform="matrix(0.03703703703703702,0,0,0.03703703703703702,46.592592592592574,0)" xlink:href="#ag"/><use transform="matrix(0.03703703703703702,0,0,0.03703703703703702,53.99999999999998,0)" xlink:href="#aa"/></g><path fill="#3a414a" d="M108 0H70L1-190h34L89-25l56-165h34" id="av"/><g id="r"><use transform="matrix(0.03703703703703702,0,0,0.03703703703703702,0,0)" xlink:href="#al"/><use transform="matrix(0.03703703703703702,0,0,0.03703703703703702,11.074074074074069,0)" xlink:href="#ak"/><use transform="matrix(0.03703703703703702,0,0,0.03703703703703702,18.481481481481474,0)" xlink:href="#av"/><use transform="matrix(0.03703703703703702,0,0,0.03703703703703702,25.148148148148138,0)" xlink:href="#ag"/><use transform="matrix(0.03703703703703702,0,0,0.03703703703703702,32.55555555555554,0)" xlink:href="#af"/></g><path fill="#333" d="M175 0L67-191c6 58 2 128 3 191H24v-248h59L193-55c-6-58-2-129-3-193h46V0h-61" id="aw"/><path fill="#333" d="M110-194c64 0 96 36 96 99 0 64-35 99-97 99-61 0-95-36-95-99 0-62 34-99 96-99zm-1 164c35 0 45-28 45-65 0-40-10-65-43-65-34 0-45 26-45 65 0 36 10 65 43 65" id="ax"/><g id="s"><use transform="matrix(0.030864197530864196,0,0,0.030864197530864196,0,0)" xlink:href="#aw"/><use transform="matrix(0.030864197530864196,0,0,0.030864197530864196,7.993827160493827,0)" xlink:href="#ax"/></g><g id="t"><use transform="matrix(0.03703703703703702,0,0,0.03703703703703702,0,0)" xlink:href="#am"/><use transform="matrix(0.03703703703703702,0,0,0.03703703703703702,11.074074074074069,0)" xlink:href="#ag"/><use transform="matrix(0.03703703703703702,0,0,0.03703703703703702,18.481481481481474,0)" xlink:href="#Y"/></g><path fill="#3a414a" d="M141 0L90-78 38 0H4l68-98-65-92h35l48 74 47-74h35l-64 92 68 98h-35" id="ay"/><g id="u"><use transform="matrix(0.03703703703703702,0,0,0.03703703703703702,0,0)" xlink:href="#ag"/><use transform="matrix(0.03703703703703702,0,0,0.03703703703703702,7.407407407407404,0)" xlink:href="#ay"/><use transform="matrix(0.03703703703703702,0,0,0.03703703703703702,14.074074074074067,0)" xlink:href="#ad"/><use transform="matrix(0.03703703703703702,0,0,0.03703703703703702,16.999999999999993,0)" xlink:href="#Y"/><use transform="matrix(0.03703703703703702,0,0,0.03703703703703702,20.703703703703695,0)" xlink:href="#au"/></g><g id="v"><use transform="matrix(0.03703703703703702,0,0,0.03703703703703702,0,0)" xlink:href="#am"/><use transform="matrix(0.03703703703703702,0,0,0.03703703703703702,11.074074074074069,0)" xlink:href="#ak"/><use transform="matrix(0.03703703703703702,0,0,0.03703703703703702,18.481481481481474,0)" xlink:href="#aa"/><use transform="matrix(0.03703703703703702,0,0,0.03703703703703702,22.88888888888888,0)" xlink:href="#ag"/></g><g id="w"><use transform="matrix(0.03703703703703702,0,0,0.03703703703703702,0,0)" xlink:href="#aa"/><use transform="matrix(0.03703703703703702,0,0,0.03703703703703702,4.407407407407406,0)" xlink:href="#ak"/><use transform="matrix(0.03703703703703702,0,0,0.03703703703703702,11.81481481481481,0)" xlink:href="#ak"/><use transform="matrix(0.03703703703703702,0,0,0.03703703703703702,19.222222222222214,0)" xlink:href="#al"/><use transform="matrix(0.03703703703703702,0,0,0.03703703703703702,30.296296296296283,0)" xlink:href="#af"/><use transform="matrix(0.03703703703703702,0,0,0.03703703703703702,36.96296296296295,0)" xlink:href="#au"/></g><path fill="#333" d="M146-102V0H94v-102L6-248h54l60 105 60-105h54" id="az"/><path fill="#333" d="M185-48c-13 30-37 53-82 52C43 2 14-33 14-96s30-98 90-98c62 0 83 45 84 108H66c0 31 8 55 39 56 18 0 30-7 34-22zm-45-69c5-46-57-63-70-21-2 6-4 13-4 21h74" id="aA"/><path fill="#333" d="M137-138c1-29-70-34-71-4 15 46 118 7 119 86 1 83-164 76-172 9l43-7c4 19 20 25 44 25 33 8 57-30 24-41C81-84 22-81 20-136c-2-80 154-74 161-7" id="aB"/><g id="x"><use transform="matrix(0.030864197530864196,0,0,0.030864197530864196,0,0)" xlink:href="#az"/><use transform="matrix(0.030864197530864196,0,0,0.030864197530864196,6.7901234567901225,0)" xlink:href="#aA"/><use transform="matrix(0.030864197530864196,0,0,0.030864197530864196,12.962962962962962,0)" xlink:href="#aB"/></g><g id="y"><use transform="matrix(0.03703703703703702,0,0,0.03703703703703702,0,0)" xlink:href="#ab"/><use transform="matrix(0.03703703703703702,0,0,0.03703703703703702,3.703703703703702,0)" xlink:href="#ac"/><use transform="matrix(0.03703703703703702,0,0,0.03703703703703702,11.111111111111107,0)" xlink:href="#Y"/><use transform="matrix(0.03703703703703702,0,0,0.03703703703703702,14.814814814814808,0)" xlink:href="#ag"/><use transform="matrix(0.03703703703703702,0,0,0.03703703703703702,22.222222222222214,0)" xlink:href="#aa"/><use transform="matrix(0.03703703703703702,0,0,0.03703703703703702,26.629629629629616,0)" xlink:href="#Z"/><use transform="matrix(0.03703703703703702,0,0,0.03703703703703702,34.03703703703702,0)" xlink:href="#aj"/><use transform="matrix(0.03703703703703702,0,0,0.03703703703703702,40.70370370370368,0)" xlink:href="#Y"/></g><g id="z"><use transform="matrix(0.03703703703703702,0,0,0.03703703703703702,0,0)" xlink:href="#ao"/><use transform="matrix(0.03703703703703702,0,0,0.03703703703703702,9.592592592592588,0)" xlink:href="#ad"/><use transform="matrix(0.03703703703703702,0,0,0.03703703703703702,12.51851851851851,0)" xlink:href="#Y"/><use transform="matrix(0.03703703703703702,0,0,0.03703703703703702,16.222222222222214,0)" xlink:href="#ai"/></g><g id="A"><use transform="matrix(0.03703703703703702,0,0,0.03703703703703702,0,0)" xlink:href="#ag"/><use transform="matrix(0.03703703703703702,0,0,0.03703703703703702,7.407407407407404,0)" xlink:href="#ac"/><use transform="matrix(0.03703703703703702,0,0,0.03703703703703702,14.814814814814808,0)" xlink:href="#Y"/><use transform="matrix(0.03703703703703702,0,0,0.03703703703703702,18.51851851851851,0)" xlink:href="#ad"/><use transform="matrix(0.03703703703703702,0,0,0.03703703703703702,21.444444444444432,0)" xlink:href="#Y"/><use transform="matrix(0.03703703703703702,0,0,0.03703703703703702,25.148148148148135,0)" xlink:href="#at"/></g><path fill="#3a414a" d="M30 0v-248h33v221h125V0H30" id="aC"/><path fill="#3a414a" d="M101-234c-31-9-42 10-38 44h38v23H63V0H32v-167H5v-23h27c-7-52 17-82 69-68v24" id="aD"/><g id="B"><use transform="matrix(0.03703703703703702,0,0,0.03703703703703702,0,0)" xlink:href="#aC"/><use transform="matrix(0.03703703703703702,0,0,0.03703703703703702,7.407407407407404,0)" xlink:href="#ag"/><use transform="matrix(0.03703703703703702,0,0,0.03703703703703702,14.814814814814808,0)" xlink:href="#aD"/><use transform="matrix(0.03703703703703702,0,0,0.03703703703703702,18.51851851851851,0)" xlink:href="#Y"/></g><path fill="#3a414a" d="M63-70H37l-4-178h34zM33 0v-35h34V0H33" id="aE"/><g id="C"><use transform="matrix(0.03703703703703702,0,0,0.03703703703703702,0,0)" xlink:href="#ae"/><use transform="matrix(0.03703703703703702,0,0,0.03703703703703702,2.9259259259259247,0)" xlink:href="#Z"/><use transform="matrix(0.03703703703703702,0,0,0.03703703703703702,10.333333333333329,0)" xlink:href="#ap"/><use transform="matrix(0.03703703703703702,0,0,0.03703703703703702,17.740740740740733,0)" xlink:href="#at"/><use transform="matrix(0.03703703703703702,0,0,0.03703703703703702,24.407407407407398,0)" xlink:href="#aa"/><use transform="matrix(0.03703703703703702,0,0,0.03703703703703702,28.814814814814802,0)" xlink:href="#ad"/><use transform="matrix(0.03703703703703702,0,0,0.03703703703703702,31.740740740740726,0)" xlink:href="#ac"/><use transform="matrix(0.03703703703703702,0,0,0.03703703703703702,39.14814814814813,0)" xlink:href="#Y"/><use transform="matrix(0.03703703703703702,0,0,0.03703703703703702,42.85185185185183,0)" xlink:href="#ai"/><use transform="matrix(0.03703703703703702,0,0,0.03703703703703702,50.25925925925924,0)" xlink:href="#aE"/></g><path fill="#3a414a" d="M140-251c81 0 123 46 123 126C263-46 219 4 140 4 59 4 17-45 17-125s42-126 123-126zm0 227c63 0 89-41 89-101s-29-99-89-99c-61 0-89 39-89 99S79-25 140-24" id="aF"/><g id="D"><use transform="matrix(0.03703703703703702,0,0,0.03703703703703702,0,0)" xlink:href="#aF"/><use transform="matrix(0.03703703703703702,0,0,0.03703703703703702,10.370370370370367,0)" xlink:href="#aq"/><use transform="matrix(0.03703703703703702,0,0,0.03703703703703702,17.77777777777777,0)" xlink:href="#Y"/><use transform="matrix(0.03703703703703702,0,0,0.03703703703703702,21.481481481481474,0)" xlink:href="#an"/><use transform="matrix(0.03703703703703702,0,0,0.03703703703703702,28.888888888888882,0)" xlink:href="#aq"/><use transform="matrix(0.03703703703703702,0,0,0.03703703703703702,36.29629629629628,0)" xlink:href="#Y"/></g><g id="E"><use transform="matrix(0.03703703703703702,0,0,0.03703703703703702,0,0)" xlink:href="#an"/><use transform="matrix(0.03703703703703702,0,0,0.03703703703703702,7.407407407407404,0)" xlink:href="#ae"/><use transform="matrix(0.03703703703703702,0,0,0.03703703703703702,10.333333333333329,0)" xlink:href="#Z"/><use transform="matrix(0.03703703703703702,0,0,0.03703703703703702,17.740740740740733,0)" xlink:href="#at"/><use transform="matrix(0.03703703703703702,0,0,0.03703703703703702,24.407407407407398,0)" xlink:href="#ag"/><use transform="matrix(0.03703703703703702,0,0,0.03703703703703702,31.814814814814802,0)" xlink:href="#aa"/></g><g id="F"><use transform="matrix(0.03703703703703702,0,0,0.03703703703703702,0,0)" xlink:href="#af"/><use transform="matrix(0.03703703703703702,0,0,0.03703703703703702,6.666666666666663,0)" xlink:href="#aj"/><use transform="matrix(0.03703703703703702,0,0,0.03703703703703702,13.333333333333327,0)" xlink:href="#ak"/><use transform="matrix(0.03703703703703702,0,0,0.03703703703703702,20.740740740740733,0)" xlink:href="#aa"/><use transform="matrix(0.03703703703703702,0,0,0.03703703703703702,25.148148148148135,0)" xlink:href="#ag"/></g><path fill="#3a414a" d="M30-248c87 1 191-15 191 75 0 78-77 80-158 76V0H30v-248zm33 125c57 0 124 11 124-50 0-59-68-47-124-48v98" id="aG"/><g id="G"><use transform="matrix(0.03703703703703702,0,0,0.03703703703703702,0,0)" xlink:href="#aG"/><use transform="matrix(0.03703703703703702,0,0,0.03703703703703702,8.888888888888886,0)" xlink:href="#ae"/><use transform="matrix(0.03703703703703702,0,0,0.03703703703703702,11.81481481481481,0)" xlink:href="#Z"/><use transform="matrix(0.03703703703703702,0,0,0.03703703703703702,19.222222222222214,0)" xlink:href="#at"/></g><path fill="#3a414a" d="M177-190C167-65 218 103 67 71c-23-6-38-20-44-43l32-5c15 47 100 32 89-28v-30C133-14 115 1 83 1 29 1 15-40 15-95c0-56 16-97 71-98 29-1 48 16 59 35 1-10 0-23 2-32h30zM94-22c36 0 50-32 50-73 0-42-14-75-50-75-39 0-46 34-46 75s6 73 46 73" id="aH"/><g id="H"><use transform="matrix(0.03703703703703702,0,0,0.03703703703703702,0,0)" xlink:href="#Z"/><use transform="matrix(0.03703703703703702,0,0,0.03703703703703702,7.407407407407404,0)" xlink:href="#aH"/><use transform="matrix(0.03703703703703702,0,0,0.03703703703703702,14.814814814814808,0)" xlink:href="#Z"/><use transform="matrix(0.03703703703703702,0,0,0.03703703703703702,22.222222222222214,0)" xlink:href="#ad"/><use transform="matrix(0.03703703703703702,0,0,0.03703703703703702,25.148148148148135,0)" xlink:href="#ac"/><use transform="matrix(0.03703703703703702,0,0,0.03703703703703702,32.555555555555536,0)" xlink:href="#au"/></g><path fill="#3a414a" d="M30 0v-248h187v28H63v79h144v27H63v87h162V0H30" id="aI"/><g id="I"><use transform="matrix(0.03703703703703702,0,0,0.03703703703703702,0,0)" xlink:href="#aI"/><use transform="matrix(0.03703703703703702,0,0,0.03703703703703702,8.888888888888886,0)" xlink:href="#ac"/><use transform="matrix(0.03703703703703702,0,0,0.03703703703703702,16.29629629629629,0)" xlink:href="#ar"/></g><g id="J"><use transform="matrix(0.030864197530864192,0,0,0.030864197530864192,0,0)" xlink:href="#az"/><use transform="matrix(0.030864197530864192,0,0,0.030864197530864192,6.7901234567901225,0)" xlink:href="#aA"/><use transform="matrix(0.030864197530864192,0,0,0.030864197530864192,12.962962962962962,0)" xlink:href="#aB"/></g><g id="K"><use transform="matrix(0.030864197530864192,0,0,0.030864197530864192,0,0)" xlink:href="#aw"/><use transform="matrix(0.030864197530864192,0,0,0.030864197530864192,7.993827160493826,0)" xlink:href="#ax"/></g><path fill="#3a414a" d="M47-170H22l-4-78h33" id="aJ"/><g id="L"><use transform="matrix(0.03703703703703702,0,0,0.03703703703703702,0,0)" xlink:href="#aG"/><use transform="matrix(0.03703703703703702,0,0,0.03703703703703702,8.888888888888886,0)" xlink:href="#ae"/><use transform="matrix(0.03703703703703702,0,0,0.03703703703703702,11.81481481481481,0)" xlink:href="#Z"/><use transform="matrix(0.03703703703703702,0,0,0.03703703703703702,19.222222222222214,0)" xlink:href="#at"/><use transform="matrix(0.03703703703703702,0,0,0.03703703703703702,25.88888888888888,0)" xlink:href="#ag"/><use transform="matrix(0.03703703703703702,0,0,0.03703703703703702,33.29629629629628,0)" xlink:href="#aa"/><use transform="matrix(0.03703703703703702,0,0,0.03703703703703702,37.70370370370369,0)" xlink:href="#aJ"/><use transform="matrix(0.03703703703703702,0,0,0.03703703703703702,40.22222222222221,0)" xlink:href="#af"/></g><path fill="#3a414a" d="M68-38c1 34 0 65-14 84H32c9-13 17-26 17-46H33v-38h35" id="aK"/><g id="M"><use transform="matrix(0.03703703703703702,0,0,0.03703703703703702,0,0)" xlink:href="#ai"/><use transform="matrix(0.03703703703703702,0,0,0.03703703703703702,7.407407407407404,0)" xlink:href="#ag"/><use transform="matrix(0.03703703703703702,0,0,0.03703703703703702,14.814814814814808,0)" xlink:href="#Z"/><use transform="matrix(0.03703703703703702,0,0,0.03703703703703702,22.222222222222214,0)" xlink:href="#ae"/><use transform="matrix(0.03703703703703702,0,0,0.03703703703703702,25.148148148148135,0)" xlink:href="#Y"/><use transform="matrix(0.03703703703703702,0,0,0.03703703703703702,28.851851851851837,0)" xlink:href="#ai"/><use transform="matrix(0.03703703703703702,0,0,0.03703703703703702,36.25925925925924,0)" xlink:href="#aK"/></g><g id="N"><use transform="matrix(0.03703703703703702,0,0,0.03703703703703702,0,0)" xlink:href="#ad"/><use transform="matrix(0.03703703703703702,0,0,0.03703703703703702,2.9259259259259247,0)" xlink:href="#ac"/><use transform="matrix(0.03703703703703702,0,0,0.03703703703703702,10.333333333333329,0)" xlink:href="#av"/><use transform="matrix(0.03703703703703702,0,0,0.03703703703703702,16.999999999999993,0)" xlink:href="#ag"/><use transform="matrix(0.03703703703703702,0,0,0.03703703703703702,24.407407407407398,0)" xlink:href="#ac"/><use transform="matrix(0.03703703703703702,0,0,0.03703703703703702,31.814814814814802,0)" xlink:href="#Y"/><use transform="matrix(0.03703703703703702,0,0,0.03703703703703702,35.518518518518505,0)" xlink:href="#ak"/><use transform="matrix(0.03703703703703702,0,0,0.03703703703703702,42.92592592592591,0)" xlink:href="#aa"/><use transform="matrix(0.03703703703703702,0,0,0.03703703703703702,47.333333333333314,0)" xlink:href="#at"/><use transform="matrix(0.03703703703703702,0,0,0.03703703703703702,52.99999999999998,0)" xlink:href="#aK"/></g><g id="O"><use transform="matrix(0.03703703703703702,0,0,0.03703703703703702,0,0)" xlink:href="#as"/><use transform="matrix(0.03703703703703702,0,0,0.03703703703703702,9.592592592592588,0)" xlink:href="#ag"/><use transform="matrix(0.03703703703703702,0,0,0.03703703703703702,16.999999999999993,0)" xlink:href="#Z"/><use transform="matrix(0.03703703703703702,0,0,0.03703703703703702,24.407407407407398,0)" xlink:href="#ae"/><use transform="matrix(0.03703703703703702,0,0,0.03703703703703702,27.33333333333332,0)" xlink:href="#Y"/><use transform="matrix(0.03703703703703702,0,0,0.03703703703703702,31.037037037037024,0)" xlink:href="#ai"/></g><g id="P"><use transform="matrix(0.03703703703703702,0,0,0.03703703703703702,0,0)" xlink:href="#ac"/><use transform="matrix(0.03703703703703702,0,0,0.03703703703703702,7.407407407407404,0)" xlink:href="#ak"/><use transform="matrix(0.03703703703703702,0,0,0.03703703703703702,14.814814814814808,0)" xlink:href="#Y"/></g><path fill="#3a414a" d="M101-251c68 0 85 55 85 127S166 4 100 4C33 4 14-52 14-124c0-73 17-127 87-127zm-1 229c47 0 54-49 54-102s-4-102-53-102c-51 0-55 48-55 102 0 53 5 102 54 102" id="aL"/><g id="Q"><use transform="matrix(0.03703703703703702,0,0,0.03703703703703702,0,0)" xlink:href="#aL"/><use transform="matrix(0.03703703703703702,0,0,0.03703703703703702,7.407407407407404,0)" xlink:href="#au"/></g><g id="R"><use transform="matrix(0.05555555555555555,0,0,0.05555555555555555,0,0)" xlink:href="#az"/><use transform="matrix(0.05555555555555555,0,0,0.05555555555555555,12.222222222222221,0)" xlink:href="#aA"/><use transform="matrix(0.05555555555555555,0,0,0.05555555555555555,23.333333333333332,0)" xlink:href="#aB"/></g><path fill="#3a414a" d="M126-127c33 6 58 20 58 59 0 88-139 92-164 29-3-8-5-16-6-25l32-3c6 27 21 44 54 44 32 0 52-15 52-46 0-38-36-46-79-43v-28c39 1 72-4 72-42 0-27-17-43-46-43-28 0-47 15-49 41l-32-3c6-42 35-63 81-64 48-1 79 21 79 65 0 36-21 52-52 59" id="aM"/><use transform="matrix(0.03703703703703702,0,0,0.03703703703703702,0,0)" xlink:href="#aM" id="S"/><g id="T"><use transform="matrix(0.03703703703703702,0,0,0.03703703703703702,0,0)" xlink:href="#ae"/><use transform="matrix(0.03703703703703702,0,0,0.03703703703703702,2.9259259259259247,0)" xlink:href="#ag"/><use transform="matrix(0.03703703703703702,0,0,0.03703703703703702,10.333333333333329,0)" xlink:href="#aH"/><use transform="matrix(0.03703703703703702,0,0,0.03703703703703702,17.740740740740733,0)" xlink:href="#ag"/><use transform="matrix(0.03703703703703702,0,0,0.03703703703703702,25.148148148148138,0)" xlink:href="#ac"/><use transform="matrix(0.03703703703703702,0,0,0.03703703703703702,32.55555555555554,0)" xlink:href="#ar"/><use transform="matrix(0.03703703703703702,0,0,0.03703703703703702,39.96296296296295,0)" xlink:href="#Z"/><use transform="matrix(0.03703703703703702,0,0,0.03703703703703702,47.37037037037035,0)" xlink:href="#aa"/><use transform="matrix(0.03703703703703702,0,0,0.03703703703703702,51.77777777777776,0)" xlink:href="#at"/></g><g id="U"><use transform="matrix(0.03703703703703702,0,0,0.03703703703703702,0,0)" xlink:href="#ad"/><use transform="matrix(0.03703703703703702,0,0,0.03703703703703702,2.9259259259259247,0)" xlink:href="#Y"/><use transform="matrix(0.03703703703703702,0,0,0.03703703703703702,6.629629629629625,0)" xlink:href="#ag"/><use transform="matrix(0.03703703703703702,0,0,0.03703703703703702,14.037037037037031,0)" xlink:href="#al"/><use transform="matrix(0.03703703703703702,0,0,0.03703703703703702,25.1111111111111,0)" xlink:href="#af"/><use transform="matrix(0.03703703703703702,0,0,0.03703703703703702,31.777777777777764,0)" xlink:href="#au"/></g><g id="V"><use transform="matrix(0.03703703703703702,0,0,0.03703703703703702,0,0)" xlink:href="#an"/><use transform="matrix(0.03703703703703702,0,0,0.03703703703703702,7.407407407407404,0)" xlink:href="#ae"/><use transform="matrix(0.03703703703703702,0,0,0.03703703703703702,10.333333333333329,0)" xlink:href="#Z"/><use transform="matrix(0.03703703703703702,0,0,0.03703703703703702,17.740740740740733,0)" xlink:href="#at"/><use transform="matrix(0.03703703703703702,0,0,0.03703703703703702,24.407407407407398,0)" xlink:href="#ag"/><use transform="matrix(0.03703703703703702,0,0,0.03703703703703702,31.814814814814802,0)" xlink:href="#aa"/></g><g id="W"><use transform="matrix(0.03703703703703702,0,0,0.03703703703703702,0,0)" xlink:href="#an"/><use transform="matrix(0.03703703703703702,0,0,0.03703703703703702,7.407407407407404,0)" xlink:href="#ak"/><use transform="matrix(0.03703703703703702,0,0,0.03703703703703702,14.814814814814808,0)" xlink:href="#af"/><use transform="matrix(0.03703703703703702,0,0,0.03703703703703702,21.481481481481474,0)" xlink:href="#ad"/><use transform="matrix(0.03703703703703702,0,0,0.03703703703703702,24.407407407407394,0)" xlink:href="#Y"/><use transform="matrix(0.03703703703703702,0,0,0.03703703703703702,28.111111111111097,0)" xlink:href="#ad"/><use transform="matrix(0.03703703703703702,0,0,0.03703703703703702,31.03703703703702,0)" xlink:href="#ak"/><use transform="matrix(0.03703703703703702,0,0,0.03703703703703702,38.44444444444442,0)" xlink:href="#ac"/></g></defs></g></svg>